<?xml version="1.0" encoding="utf-8"?>
<!-- Generator: Adobe Illustrator 18.1.1, SVG Export Plug-In . SVG Version: 6.00 Build 0)  -->
<svg version="1.1" id="Layer_1" xmlns="http://www.w3.org/2000/svg" xmlns:xlink="http://www.w3.org/1999/xlink" x="0px" y="0px"
	 viewBox="0 0 119.7 46.6" enable-background="new 0 0 119.7 46.6" xml:space="preserve">
<g>
	<circle fill="#50E5F9" cx="37.8" cy="24.6" r="2"/>
	<rect x="37.4" y="15.1" fill="#50E5F9" width="1" height="8"/>
	<g>
		<g>
			<path fill="#50E5F9" d="M10.8,11.2c3.1,0,5.5,0.7,7.1,2s2.4,3.3,2.4,5.8c0,1.2-0.2,2.2-0.7,3.2c-0.4,1-1.1,1.8-1.9,2.5
				c-0.8,0.7-1.8,1.3-3,1.7c-1.2,0.4-2.5,0.6-3.9,0.6H5.9v10.7H3.9V11.2H10.8z M10.8,25.5c1.2,0,2.2-0.2,3.1-0.5
				c0.9-0.3,1.7-0.8,2.4-1.4c0.6-0.6,1.1-1.3,1.5-2c0.3-0.8,0.5-1.6,0.5-2.6c0-2-0.6-3.6-1.9-4.7c-1.3-1.1-3.1-1.7-5.6-1.7H5.9v12.8
				H10.8z"/>
			<path fill="#50E5F9" d="M57.1,23.4h1.6c0.2,0,0.4,0,0.6,0c0.2,0,0.3-0.1,0.5-0.1c0.1,0,0.3-0.1,0.4-0.2c0.1-0.1,0.2-0.2,0.4-0.3
				l10.7-11c0.2-0.2,0.4-0.4,0.6-0.4c0.2-0.1,0.4-0.1,0.6-0.1h1.5L62.5,23.1c-0.2,0.3-0.4,0.4-0.6,0.6c-0.2,0.1-0.4,0.3-0.6,0.3
				c0.3,0.1,0.5,0.2,0.7,0.3c0.2,0.2,0.4,0.4,0.6,0.6l12.2,12.8h-1.6c-0.3,0-0.6,0-0.7-0.1c-0.1-0.1-0.3-0.2-0.4-0.4L60.9,25.7
				c-0.1-0.1-0.3-0.3-0.4-0.4c-0.1-0.1-0.3-0.2-0.4-0.3C60,25.1,59.8,25,59.6,25s-0.4,0-0.7,0h-1.7v12.8h-1.9V11.2h1.9V23.4z"/>
			<path fill="#50E5F9" d="M95,36.1l0,1.6H79.1V11.2H95v1.6H81v10.7h11.6v1.6H81v11.1H95z"/>
			<path fill="#50E5F9" d="M119.2,37.7h-1.7c-0.2,0-0.4,0-0.5-0.1c-0.1-0.1-0.3-0.2-0.4-0.4l-8.5-10.8c-0.1-0.1-0.2-0.3-0.3-0.4
				c-0.1-0.1-0.2-0.2-0.4-0.2c-0.1-0.1-0.3-0.1-0.5-0.1c-0.2,0-0.4,0-0.7,0h-3.5v12h-1.9V11.2h6.8c3.1,0,5.3,0.6,6.9,1.8
				c1.5,1.2,2.3,2.9,2.3,5.2c0,1-0.2,1.9-0.5,2.8c-0.4,0.8-0.9,1.6-1.5,2.2s-1.5,1.1-2.4,1.5s-2,0.7-3.1,0.8
				c0.3,0.2,0.6,0.4,0.8,0.8L119.2,37.7z M107.4,24.3c1.2,0,2.2-0.1,3.2-0.4s1.7-0.7,2.4-1.2c0.6-0.5,1.1-1.2,1.5-1.9
				c0.3-0.7,0.5-1.6,0.5-2.5c0-1.9-0.6-3.3-1.9-4.2s-3-1.4-5.4-1.4h-4.9v11.6H107.4z"/>
		</g>
		<g>
			<path fill="#50E5F9" d="M37.8,38c-7.5,0-13.7-6.1-13.7-13.7s6.1-13.7,13.7-13.7s13.7,6.1,13.7,13.7S45.3,38,37.8,38z M37.8,12.6
				c-6.5,0-11.8,5.3-11.8,11.8c0,6.5,5.3,11.8,11.8,11.8c6.5,0,11.8-5.3,11.8-11.8C49.6,17.9,44.3,12.6,37.8,12.6z"/>
		</g>
		<g>
			<path fill="#FFFFFF" d="M8.8,3.5c0,0-0.1,0.1-0.1,0.1s-0.1,0-0.1,0c-0.1,0-0.1,0-0.2-0.1C8.3,3.5,8.3,3.4,8.1,3.3
				C8,3.3,7.9,3.2,7.7,3.2S7.4,3.1,7.2,3.1c-0.2,0-0.4,0-0.6,0.1S6.3,3.3,6.2,3.4S6,3.6,6,3.7C5.9,3.9,5.9,4,5.9,4.2
				c0,0.2,0,0.4,0.1,0.5S6.2,4.9,6.4,5s0.3,0.2,0.5,0.2c0.2,0.1,0.4,0.1,0.6,0.2S8,5.6,8.2,5.7C8.4,5.8,8.5,5.9,8.7,6
				C8.9,6.1,9,6.3,9.1,6.5c0.1,0.2,0.1,0.4,0.1,0.7c0,0.3-0.1,0.6-0.2,0.9C9,8.4,8.8,8.6,8.6,8.8C8.4,9,8.2,9.1,7.9,9.3
				s-0.6,0.2-1,0.2C6.4,9.4,6,9.3,5.6,9.2S5,8.8,4.7,8.5L5,8.1C5,8,5,8,5.1,8s0.1,0,0.1,0c0,0,0.1,0,0.1,0.1c0.1,0,0.1,0.1,0.2,0.1
				c0.1,0.1,0.1,0.1,0.2,0.2c0.1,0.1,0.2,0.1,0.3,0.2c0.1,0.1,0.2,0.1,0.4,0.1s0.3,0.1,0.5,0.1c0.2,0,0.4,0,0.6-0.1
				C7.7,8.5,7.8,8.4,8,8.3C8.1,8.2,8.2,8,8.2,7.9c0.1-0.2,0.1-0.3,0.1-0.5c0-0.2,0-0.4-0.1-0.5C8.1,6.7,8,6.6,7.8,6.5
				C7.7,6.4,7.5,6.3,7.3,6.3C7.1,6.2,6.9,6.2,6.7,6.1C6.5,6,6.3,5.9,6.1,5.9S5.7,5.7,5.5,5.5C5.4,5.4,5.2,5.2,5.1,5S5,4.5,5,4.2
				C5,4,5,3.7,5.1,3.5s0.2-0.4,0.4-0.6C5.7,2.7,6,2.6,6.2,2.5s0.6-0.2,0.9-0.2c0.4,0,0.7,0.1,1.1,0.2C8.5,2.6,8.8,2.8,9.1,3L8.8,3.5
				z"/>
			<path fill="#FFFFFF" d="M15.4,7.9c0.1,0,0.1,0,0.1,0.1l0.4,0.4c-0.3,0.3-0.6,0.6-1,0.8c-0.4,0.2-0.9,0.3-1.5,0.3
				c-0.5,0-1-0.1-1.4-0.3s-0.8-0.4-1-0.7c-0.3-0.3-0.5-0.7-0.7-1.1c-0.2-0.4-0.2-0.9-0.2-1.4s0.1-1,0.2-1.4c0.2-0.4,0.4-0.8,0.7-1.1
				s0.7-0.6,1.1-0.7s0.9-0.3,1.4-0.3c0.5,0,0.9,0.1,1.3,0.2c0.4,0.2,0.7,0.4,1,0.6l-0.3,0.4c0,0,0,0.1-0.1,0.1c0,0-0.1,0-0.1,0
				c-0.1,0-0.1,0-0.2-0.1c-0.1-0.1-0.2-0.1-0.3-0.2c-0.1-0.1-0.3-0.1-0.5-0.2c-0.2-0.1-0.5-0.1-0.8-0.1c-0.4,0-0.7,0.1-1,0.2
				c-0.3,0.1-0.6,0.3-0.8,0.5c-0.2,0.2-0.4,0.5-0.5,0.9c-0.1,0.3-0.2,0.7-0.2,1.2c0,0.4,0.1,0.8,0.2,1.2s0.3,0.6,0.5,0.9
				c0.2,0.2,0.5,0.4,0.8,0.5c0.3,0.1,0.6,0.2,1,0.2c0.2,0,0.4,0,0.6,0s0.3-0.1,0.5-0.1c0.1-0.1,0.3-0.1,0.4-0.2
				C15,8.2,15.1,8.1,15.3,8C15.3,7.9,15.4,7.9,15.4,7.9z"/>
			<path fill="#FFFFFF" d="M22.2,9.3h-0.8c-0.2,0-0.3-0.1-0.4-0.2l-1.8-2.5C19.1,6.6,19,6.5,19,6.5c-0.1,0-0.2-0.1-0.3-0.1H18v2.9
				H17v-7h2c0.4,0,0.8,0,1.1,0.1c0.3,0.1,0.6,0.2,0.8,0.4c0.2,0.2,0.4,0.4,0.5,0.6c0.1,0.2,0.2,0.5,0.2,0.8c0,0.2,0,0.5-0.1,0.7
				c-0.1,0.2-0.2,0.4-0.3,0.6C21,5.7,20.8,5.9,20.6,6c-0.2,0.1-0.5,0.2-0.7,0.3c0.1,0.1,0.2,0.2,0.3,0.3L22.2,9.3z M19,5.8
				c0.3,0,0.5,0,0.7-0.1s0.4-0.2,0.5-0.3c0.1-0.1,0.2-0.3,0.3-0.4s0.1-0.4,0.1-0.6c0-0.4-0.1-0.7-0.4-0.9C20,3.2,19.6,3.1,19,3.1h-1
				v2.6H19z"/>
			<path fill="#FFFFFF" d="M25.8,8.6c0.3,0,0.5,0,0.8-0.1C26.8,8.4,27,8.2,27.1,8c0.2-0.2,0.3-0.4,0.4-0.6c0.1-0.2,0.1-0.5,0.1-0.8
				V2.4h0.9v4.2c0,0.4-0.1,0.8-0.2,1.1c-0.1,0.3-0.3,0.6-0.5,0.9s-0.5,0.4-0.9,0.6c-0.3,0.1-0.7,0.2-1.2,0.2S25,9.4,24.6,9.2
				c-0.3-0.1-0.6-0.3-0.9-0.6c-0.2-0.3-0.4-0.5-0.6-0.9C23.1,7.4,23,7,23,6.6V2.4h0.9v4.2c0,0.3,0,0.6,0.1,0.8
				c0.1,0.2,0.2,0.5,0.4,0.6c0.2,0.2,0.3,0.3,0.6,0.4C25.2,8.5,25.5,8.6,25.8,8.6z"/>
			<path fill="#FFFFFF" d="M37.5,2.4v7h-0.8V4.2c0-0.1,0-0.1,0-0.2s0-0.2,0-0.2l-2.4,4.4c-0.1,0.1-0.2,0.2-0.3,0.2h-0.1
				c-0.2,0-0.3-0.1-0.3-0.2L31,3.7c0,0.2,0,0.3,0,0.5v5.1h-0.8v-7h0.7c0.1,0,0.1,0,0.2,0c0,0,0.1,0.1,0.1,0.1l2.4,4.3
				c0,0.1,0.1,0.2,0.1,0.2c0,0.1,0.1,0.2,0.1,0.3c0-0.1,0.1-0.2,0.1-0.3c0-0.1,0.1-0.2,0.1-0.2l2.4-4.3c0-0.1,0.1-0.1,0.1-0.1
				c0,0,0.1,0,0.2,0H37.5z"/>
		</g>
	</g>
	
		<rect x="39.2" y="24" transform="matrix(0.7071 -0.7071 0.7071 0.7071 -7.2391 36.2716)" fill="#50E5F9" width="1.9" height="5.7"/>
</g>
<g>
</g>
<g>
</g>
<g>
</g>
<g>
</g>
<g>
</g>
<g>
</g>
<g>
</g>
<g>
</g>
<g>
</g>
<g>
</g>
<g>
</g>
<g>
</g>
<g>
</g>
<g>
</g>
<g>
</g>
</svg>
